Coordinates
version=1
nRows=13
nColumns=40
inDegrees=yes

Units are S.I. units (second, meters, Newtons, ...)
If the header above contains a line with 'inDegrees', this indicates whether rotational values are in degrees (yes) or radians (no).

endheader
time	pelvis_tilt	pelvis_list	pelvis_rotation	pelvis_tx	pelvis_ty	pelvis_tz	hip_flexion_r	hip_adduction_r	hip_rotation_r	knee_angle_r	knee_angle_r_beta	ankle_angle_r	subtalar_angle_r	mtp_angle_r	hip_flexion_l	hip_adduction_l	hip_rotation_l	knee_angle_l	knee_angle_l_beta	ankle_angle_l	subtalar_angle_l	mtp_angle_l	lumbar_extension	lumbar_bending	lumbar_rotation	arm_flex_r	arm_add_r	arm_rot_r	elbow_flex_r	pro_sup_r	wrist_flex_r	wrist_dev_r	arm_flex_l	arm_add_l	arm_rot_l	elbow_flex_l	pro_sup_l	wrist_flex_l	wrist_dev_l
      0.32000000	     24.50021383	      2.14682174	      2.43219380	      0.52160391	      0.98417612	     -0.32699725	    -22.60178713	      2.67675760	     -4.50253790	     11.91189523	      0.20790179	     -5.54028826	      0.00000000	      0.00000000	    -10.80550130	     -2.77438217	      0.21337517	     55.78302151	      0.97359739	    -12.52844034	      0.00000000	      0.00000000	    -35.57528423	      1.56712264	     -2.91495255	      6.08063843	    -17.65225240	     19.63835331	     42.86588846	     79.74605214	      0.00000000	      0.00000000	     -2.35027872	    -22.88939780	     17.99987382	     47.61652068	     80.02793599	      0.00000000	      0.00000000
      0.32400000	     24.46464655	      2.15398894	      2.38096413	      0.52707210	      0.98440104	     -0.32666156	    -23.09850000	      2.69642853	     -4.78995647	     11.54946224	      0.20157614	     -5.51346040	      0.00000000	      0.00000000	    -10.17487178	     -2.79460651	      0.10805768	     55.48538900	      0.96840272	    -12.21813254	      0.00000000	      0.00000000	    -35.52246702	      1.48523618	     -2.84901972	      6.28537464	    -17.56622581	     19.72881474	     42.94673789	     79.76468165	      0.00000000	      0.00000000	     -2.45666073	    -22.92228542	     18.01929121	     47.44227440	     79.97022425	      0.00000000	      0.00000000
      0.32800000	     24.68615279	      2.06624603	      1.97404120	      0.53165285	      0.98494292	     -0.32621342	    -23.87198964	      2.69441406	     -4.29545303	     11.02864462	      0.19248616	     -5.72503445	      0.00000000	      0.00000000	     -9.89548764	     -2.76006662	     -0.17553135	     55.04973078	      0.96079905	    -11.70736177	      0.00000000	      0.00000000	    -35.86752509	      1.34212514	     -2.46211283	      6.60598926	    -17.64705069	     19.86135388	     43.25853016	     79.72017248	      0.00000000	      0.00000000	     -2.77148584	    -22.93703943	     17.68690824	     47.93491367	     79.96606399	      0.00000000	      0.00000000
      0.33200000	     24.60023452	      2.09847229	      1.91987224	      0.53687272	      0.98505753	     -0.32607623	    -24.24487183	      2.65879987	     -4.52673520	     10.76939216	      0.18796135	     -5.68195584	      0.00000000	      0.00000000	     -9.19944602	     -2.68693090	     -0.21452872	     54.69584953	      0.95462266	    -11.36303438	      0.00000000	      0.00000000	    -35.79671118	      1.25747492	     -2.38922920	      6.80192439	    -17.58115108	     19.89272133	     43.40253456	     79.71755101	      0.00000000	      0.00000000	     -2.79533634	    -22.91997561	     17.65661886	     47.67135679	     79.90888203	      0.00000000	      0.00000000
      0.33600000	     24.58577579	      2.02649189	      1.78195549	      0.54143103	      0.98510036	     -0.32602205	    -24.57454185	      2.69767003	     -4.67870894	     10.67378765	      0.18629274	     -5.61382053	      0.00000000	      0.00000000	     -8.57473036	     -2.58796164	     -0.12123390	     54.40662382	      0.94957472	    -11.30525055	      0.00000000	      0.00000000	    -35.85132727	      1.24101035	     -2.18385632	      7.19022658	    -17.59819872	     19.81255576	     43.60264609	     79.68446908	      0.00000000	      0.00000000	     -2.90634545	    -22.97988891	     17.64259585	     47.72645884	     79.89525566	      0.00000000	      0.00000000
      0.34000000	     24.43630668	      2.21841724	      1.86622108	      0.54671992	      0.98506185	     -0.32637875	    -25.06138075	      2.57987943	     -4.93052904	     10.07317036	      0.17580999	     -5.47920362	      0.00000000	      0.00000000	     -7.85062830	     -2.27533163	      0.14903206	     53.92066023	      0.94109306	    -11.06049271	      0.00000000	      0.00000000	    -35.73263224	      1.08595261	     -2.29099722	      7.26849545	    -17.55434553	     19.69780973	     43.93764226	     79.40161280	      0.00000000	      0.00000000	     -2.90098987	    -22.84697451	     17.43159122	     47.48203066	     79.72174594	      0.00000000	      0.00000000
      0.34400000	     24.35841178	      2.21487865	      1.81455258	      0.55178736	      0.98494313	     -0.32609045	    -25.42140940	      2.61469382	     -5.19886833	      9.85526882	      0.17200689	     -5.34206226	      0.00000000	      0.00000000	     -7.20922932	     -2.23335846	      0.14703221	     53.44344309	      0.93276405	    -10.80074428	      0.00000000	      0.00000000	    -35.68094375	      1.02067511	     -2.15023374	      7.43608836	    -17.52951132	     19.73185160	     44.11955673	     79.32656177	      0.00000000	      0.00000000	     -3.12850485	    -22.97228205	     17.39780588	     47.75749669	     79.66401314	      0.00000000	      0.00000000
      0.34800000	     24.40844222	      2.31691014	      2.02437928	      0.55704347	      0.98503900	     -0.32632982	    -26.11957128	      2.66510467	     -5.52731190	      9.27156737	      0.16181938	     -5.46807528	      0.00000000	      0.00000000	     -6.70685336	     -2.06143481	      0.47902861	     52.95005512	      0.92415280	    -10.43963375	      0.00000000	      0.00000000	    -35.73634188	      1.01054014	     -2.37505572	      7.66843709	    -17.45957847	     19.91784042	     44.20048563	     79.04275249	      0.00000000	      0.00000000	     -3.19625171	    -22.98774539	     17.36430502	     47.59406897	     79.28626082	      0.00000000	      0.00000000
      0.35200000	     24.33307797	      2.21673510	      1.87952346	      0.56173512	      0.98491089	     -0.32634783	    -26.38099756	      2.70339712	     -5.64456409	      9.16797518	      0.16001135	     -5.40508074	      0.00000000	      0.00000000	     -6.03272260	     -2.06439669	      0.39518154	     52.48685825	      0.91606849	    -10.25929006	      0.00000000	      0.00000000	    -35.73748549	      1.00063642	     -2.10331721	      7.91690691	    -17.49906409	     19.91625089	     44.38816568	     79.04536733	      0.00000000	      0.00000000	     -3.31880863	    -23.01517599	     17.30955622	     47.73415345	     79.28126685	      0.00000000	      0.00000000
      0.35600000	     24.18601153	      2.16090525	      1.73581740	      0.56696148	      0.98461887	     -0.32628171	    -26.69465627	      2.71494850	     -5.61183361	      8.95118312	      0.15622762	     -5.26318381	      0.00000000	      0.00000000	     -5.40052519	     -2.03094390	      0.30896977	     51.87680911	      0.90542112	     -9.98813360	      0.00000000	      0.00000000	    -35.59381336	      0.95361287	     -1.92307753	      8.05021803	    -17.54918168	     19.99338951	     44.67464311	     79.02911707	      0.00000000	      0.00000000	     -3.48081126	    -22.99115555	     17.26808331	     47.80456646	     79.21438659	      0.00000000	      0.00000000
      0.36000000	     24.13258977	      2.11473549	      1.71168165	      0.57154363	      0.98440381	     -0.32622353	    -27.00415876	      2.78307903	     -5.72367871	      8.81971747	      0.15393311	     -5.17996274	      0.00000000	      0.00000000	     -4.73898362	     -2.02119539	      0.25774470	     51.44762242	      0.89793040	     -9.76500791	      0.00000000	      0.00000000	    -35.63703893	      0.96038124	     -1.76753149	      8.28728542	    -17.55216303	     20.00394665	     44.87137426	     79.02252481	      0.00000000	      0.00000000	     -3.55703280	    -23.04145140	     17.24019649	     47.92565440	     79.18277284	      0.00000000	      0.00000000
      0.36400000	     23.99826595	      2.03588026	      1.65295436	      0.57657236	      0.98398164	     -0.32631394	    -27.33027547	      2.86528440	     -5.73806571	      8.54166248	      0.14908013	     -5.06960019	      0.00000000	      0.00000000	     -4.09867423	     -1.99437686	      0.27838698	     50.83998215	      0.88732508	     -9.39423487	      0.00000000	      0.00000000	    -35.53964647	      0.97505507	     -1.62594805	      8.40538665	    -17.66390781	     20.15207638	     45.22699123	     79.01495992	      0.00000000	      0.00000000	     -3.72460351	    -23.03842596	     17.13824180	     48.06404724	     79.10610110	      0.00000000	      0.00000000
      0.36800000	     23.95356404	      1.98050019	      1.59153211	      0.58154529	      0.98375050	     -0.32640122	    -27.86179858	      2.93809797	     -5.50689580	      8.05350620	      0.14056020	     -5.10234641	      0.00000000	      0.00000000	     -3.51657501	     -1.98280817	      0.16522155	     50.31088076	      0.87809052	     -9.14808927	      0.00000000	      0.00000000	    -35.54155260	      0.99383080	     -1.53980999	      8.71281449	    -17.69146283	     20.32355508	     45.37343064	     78.90830127	      0.00000000	      0.00000000	     -3.70951850	    -22.88836031	     17.01197394	     47.78650734	     78.87999150	      0.00000000	      0.00000000
